G04 DipTrace 3.0.0.2*
G04 BottomSilk.gbr*
%MOIN*%
G04 #@! TF.FileFunction,Legend,Bot*
G04 #@! TF.Part,Single*
%ADD10C,0.009843*%
%ADD72C,0.00772*%
%ADD73C,0.012351*%
%FSLAX26Y26*%
G04*
G70*
G90*
G75*
G01*
G04 BotSilk*
%LPD*%
X1585360Y843429D2*
D10*
Y894571D1*
X1410360Y1518429D2*
Y1569571D1*
X1510264Y959812D2*
D72*
X1512641Y964566D1*
X1517449Y969374D1*
X1522203Y971751D1*
X1531764D1*
X1536573Y969374D1*
X1541326Y964566D1*
X1543758Y959812D1*
X1546134Y952627D1*
Y940634D1*
X1543758Y933504D1*
X1541326Y928696D1*
X1536573Y923942D1*
X1531764Y921511D1*
X1522203D1*
X1517449Y923942D1*
X1512641Y928696D1*
X1510264Y933504D1*
X1494825Y962134D2*
X1490017Y964566D1*
X1482832Y971695D1*
Y921511D1*
X1346014Y1634812D2*
X1348391Y1639566D1*
X1353199Y1644374D1*
X1357952Y1646751D1*
X1367514D1*
X1372323Y1644374D1*
X1377076Y1639566D1*
X1379508Y1634812D1*
X1381884Y1627627D1*
Y1615634D1*
X1379508Y1608504D1*
X1377076Y1603696D1*
X1372323Y1598942D1*
X1367514Y1596511D1*
X1357952D1*
X1353199Y1598942D1*
X1348391Y1603696D1*
X1346014Y1608504D1*
X1328143Y1634757D2*
Y1637134D1*
X1325767Y1641942D1*
X1323390Y1644319D1*
X1318582Y1646695D1*
X1309020D1*
X1304267Y1644319D1*
X1301890Y1641942D1*
X1299458Y1637134D1*
Y1632381D1*
X1301890Y1627572D1*
X1306643Y1620442D1*
X1330575Y1596511D1*
X1297082D1*
X1825730Y705485D2*
D73*
X1829533Y713090D1*
X1837226Y720783D1*
X1844832Y724586D1*
X1860130D1*
X1867824Y720783D1*
X1875429Y713090D1*
X1879320Y705485D1*
X1883122Y693989D1*
Y674799D1*
X1879320Y663391D1*
X1875429Y655698D1*
X1867824Y648093D1*
X1860130Y644202D1*
X1844832D1*
X1837226Y648093D1*
X1829533Y655698D1*
X1825730Y663391D1*
X1801028Y697791D2*
Y659500D1*
X1797225Y648093D1*
X1789532Y644202D1*
X1778036D1*
X1770430Y648093D1*
X1758934Y659500D1*
Y697791D2*
Y644202D1*
X1734232Y697791D2*
Y644202D1*
Y674799D2*
X1730341Y686295D1*
X1722736Y693989D1*
X1715042Y697791D1*
X1703546D1*
X1678843D2*
Y644202D1*
Y674799D2*
X1674952Y686295D1*
X1667347Y693989D1*
X1659654Y697791D1*
X1648157D1*
X1623455Y674799D2*
X1577559D1*
Y682492D1*
X1581361Y690186D1*
X1585164Y693989D1*
X1592857Y697791D1*
X1604354D1*
X1611959Y693989D1*
X1619652Y686295D1*
X1623455Y674799D1*
Y667194D1*
X1619652Y655698D1*
X1611959Y648093D1*
X1604354Y644202D1*
X1592857D1*
X1585164Y648093D1*
X1577559Y655698D1*
X1552856Y697791D2*
Y644202D1*
Y682492D2*
X1541360Y693989D1*
X1533666Y697791D1*
X1522259D1*
X1514565Y693989D1*
X1510763Y682492D1*
Y644202D1*
X1474564Y724586D2*
Y659500D1*
X1470761Y648093D1*
X1463068Y644202D1*
X1455463D1*
X1486060Y697791D2*
X1459265D1*
X1299409Y713090D2*
X1307014Y720783D1*
X1318510Y724586D1*
X1333809D1*
X1345305Y720783D1*
X1352998Y713090D1*
Y705485D1*
X1349107Y697791D1*
X1345305Y693989D1*
X1337700Y690186D1*
X1314708Y682492D1*
X1307014Y678690D1*
X1303212Y674799D1*
X1299409Y667194D1*
Y655698D1*
X1307014Y648093D1*
X1318510Y644202D1*
X1333809D1*
X1345305Y648093D1*
X1352998Y655698D1*
X1274706Y724586D2*
X1270904Y720783D1*
X1267013Y724586D1*
X1270904Y728477D1*
X1274706Y724586D1*
X1270904Y697791D2*
Y644202D1*
X1242310Y697791D2*
Y644202D1*
Y682492D2*
X1230814Y693989D1*
X1223120Y697791D1*
X1211713D1*
X1204019Y693989D1*
X1200217Y682492D1*
Y644202D1*
X1175514Y724586D2*
Y644202D1*
X1137223Y697791D2*
X1175514Y659500D1*
X1160215Y674799D2*
X1133421Y644202D1*
X1011855Y697791D2*
X1019460Y693989D1*
X1027154Y686295D1*
X1030956Y674799D1*
Y667194D1*
X1027154Y655698D1*
X1019460Y648093D1*
X1011855Y644202D1*
X1000359D1*
X992666Y648093D1*
X985060Y655698D1*
X981170Y667194D1*
Y674799D1*
X985060Y686295D1*
X992666Y693989D1*
X1000359Y697791D1*
X1011855D1*
X956467D2*
Y644202D1*
Y674799D2*
X952576Y686295D1*
X944971Y693989D1*
X937277Y697791D1*
X925781D1*
X769727Y713090D2*
X777332Y720783D1*
X788829Y724586D1*
X804127D1*
X815623Y720783D1*
X823317Y713090D1*
Y705485D1*
X819426Y697791D1*
X815623Y693989D1*
X808018Y690186D1*
X785026Y682492D1*
X777332Y678690D1*
X773530Y674799D1*
X769727Y667194D1*
Y655698D1*
X777332Y648093D1*
X788829Y644202D1*
X804127D1*
X815623Y648093D1*
X823317Y655698D1*
X745025Y697791D2*
X729726Y644202D1*
X714427Y697791D1*
X699129Y644202D1*
X683830Y697791D1*
X659127Y724586D2*
X655325Y720783D1*
X651434Y724586D1*
X655325Y728477D1*
X659127Y724586D1*
X655325Y697791D2*
Y644202D1*
X626731Y697791D2*
Y644202D1*
Y682492D2*
X615235Y693989D1*
X607541Y697791D1*
X596134D1*
X588440Y693989D1*
X584638Y682492D1*
Y644202D1*
Y682492D2*
X573142Y693989D1*
X565448Y697791D1*
X554041D1*
X546347Y693989D1*
X542456Y682492D1*
Y644202D1*
M02*
