M48
INCH
T01C0.02
T02C0.0354
T03C0.038
T04C0.0433
T05C0.0512
T06C0.093
T07C0.0945
%
T01
X+013190Y+008690
X+014440Y+009940
X+011190Y+012190
X+009192Y+012438
X+010190Y+008940
X+012940Y+014690
T02
X+011440Y+004690
X+012440Y+004690
X+013440Y+004690
T03
X+014940Y+017690
X+014940Y+012690
T04
X+011440Y+017690
X+012440Y+017690
X+013440Y+017690
T05
X+017440Y+005690
X+019440Y+005690
X+019190Y+009690
X+019190Y+010674
X+019190Y+011659
X+007440Y+005690
X+005440Y+005690
X+005690Y+009721
X+005690Y+010706
X+005690Y+011690
T06
X+017440Y+019190
X+007440Y+019190
T07
X+017891Y+013155
X+017891Y+008194
X+006989Y+008225
X+006989Y+013186
T00
M30
