G04 DipTrace 3.0.0.2*
G04 Top.gbr*
%MOIN*%
G04 #@! TF.FileFunction,Copper,L1,Top*
G04 #@! TF.Part,Single*
G04 #@! TA.AperFunction,Conductor*
%ADD13C,0.01*%
%ADD14C,0.024*%
%ADD17R,0.051181X0.059055*%
%ADD19R,0.023622X0.023622*%
G04 #@! TA.AperFunction,ComponentPad*
%ADD20R,0.059055X0.059055*%
%ADD21C,0.059055*%
%ADD22R,0.066929X0.066929*%
%ADD23C,0.066929*%
%ADD24R,0.074803X0.074803*%
%ADD25C,0.074803*%
%ADD26R,0.059055X0.051181*%
G04 #@! TA.AperFunction,ComponentPad*
%ADD27C,0.06*%
%ADD28C,0.06*%
%ADD29R,0.07874X0.023622*%
G04 #@! TA.AperFunction,ComponentPad*
%ADD30R,0.082677X0.082677*%
%ADD31C,0.082677*%
G04 #@! TA.AperFunction,ViaPad*
%ADD32C,0.034*%
%FSLAX26Y26*%
G04*
G70*
G90*
G75*
G01*
G04 Top*
%LPD*%
X1144000Y1583961D2*
D13*
X1259157D1*
X1244197Y1569000D1*
Y1668803D1*
X1144000Y1769000D1*
X1431598Y894000D2*
X1406598Y869000D1*
X1319000D1*
X1431598Y844000D2*
X1406598Y869000D1*
X1219000Y894000D2*
X1244000Y869000D1*
X1319000D1*
X1219000Y844000D2*
X1244000Y869000D1*
X1431598Y844000D2*
X1494000D1*
X1518803Y819197D1*
Y669000D1*
X1044197Y1044000D2*
X1019000Y1018803D1*
Y894000D1*
Y744000D1*
Y894000D2*
D3*
X1119000Y1219000D2*
Y1269000D1*
X1331598Y1319000D2*
X1444000D1*
X1494000Y1269000D1*
X1331598Y1369000D2*
X1413420D1*
Y1412919D1*
X1319000Y1569000D1*
X1744000Y569000D2*
X1444000D1*
X1344000Y469000D1*
X1219000Y794000D2*
X1119000D1*
Y1044000D1*
X1194197Y1119000D2*
X1119000D1*
Y1044000D1*
X1331598Y1419000D2*
X1294000Y1469000D1*
X1369000Y1119000D2*
X1269000D1*
X1219000Y944000D2*
Y1069000D1*
X1269000Y1119000D1*
X994000Y1169000D2*
X1219000D1*
X1269000Y1119000D1*
X1331598Y1419000D2*
X1269000D1*
Y1119000D1*
X1244000Y469000D2*
X1269000D1*
X1419000Y619000D1*
X1569000D1*
X1594000Y644000D1*
Y944000D1*
X1431598D1*
X1444000Y994000D2*
Y956402D1*
X1431598Y944000D1*
X1444000Y669000D2*
Y694000D1*
X1431598Y706402D1*
Y794000D1*
X1331598Y1269000D2*
Y1231205D1*
X1443803Y1119000D1*
X1769000D1*
X1919000Y969000D1*
X944000Y543803D2*
Y744000D1*
X944197D1*
Y918803D1*
X869000Y994000D1*
Y1244000D1*
X994000Y1369000D1*
X1119000D1*
X994000Y1243803D2*
X1119000Y1319000D1*
X994000Y1243803D2*
X919197D1*
X1119000Y1419000D2*
X1144000Y1444000D1*
Y1497346D1*
X1494000Y1769000D2*
D14*
X1344000D1*
X1144000Y469000D2*
X944000D1*
X844000D1*
X744000Y569000D1*
Y669000D1*
X794000Y719000D1*
Y1269000D1*
X844000Y1319000D1*
X869000D1*
X1069000Y1519000D1*
Y1844000D1*
X1244000D1*
Y1769000D1*
D32*
X1294000Y1469000D3*
D3*
X1444000Y994000D3*
X919197Y1243803D3*
X1319000Y869000D3*
X1019000Y894000D3*
X1119000Y1219000D3*
D19*
X1144000Y1497346D3*
Y1583961D3*
D20*
Y469000D3*
D21*
X1244000D3*
X1344000D3*
D22*
X1744000Y569000D3*
D23*
X1944000D3*
D22*
X744000D3*
D23*
X544000D3*
D24*
X1144000Y1769000D3*
D25*
X1244000D3*
X1344000D3*
D26*
X944000Y469000D3*
Y543803D3*
D17*
X1119000Y1044000D3*
X1044197D3*
X1444000Y669000D3*
X1518803D3*
X1269000Y1119000D3*
X1194197D3*
D27*
X1494000Y1769000D3*
D28*
Y1269000D3*
D17*
X1369000Y1119000D3*
X1443803D3*
X944197Y744000D3*
X1019000D3*
D26*
X994000Y1169000D3*
Y1243803D3*
D17*
X1319000Y1569000D3*
X1244197D3*
D29*
X1119000Y1419000D3*
Y1369000D3*
Y1319000D3*
Y1269000D3*
X1331598D3*
Y1319000D3*
Y1369000D3*
Y1419000D3*
X1219000Y944000D3*
Y894000D3*
Y844000D3*
Y794000D3*
X1431598D3*
Y844000D3*
Y894000D3*
Y944000D3*
D30*
X1919000Y969000D3*
D31*
Y1165850D3*
Y1067425D3*
D30*
X569000Y1169000D3*
D31*
Y972150D3*
Y1070575D3*
M02*
