G04 DipTrace 3.0.0.2*
G04 TopMask.gbr*
%MOIN*%
G04 #@! TF.FileFunction,Soldermask,Top*
G04 #@! TF.Part,Single*
%ADD34C,0.093*%
%ADD35C,0.094488*%
%ADD44C,0.090677*%
%ADD46R,0.090677X0.090677*%
%ADD48R,0.08674X0.031622*%
%ADD50C,0.068*%
%ADD52C,0.068*%
%ADD54R,0.067055X0.059181*%
%ADD56C,0.082803*%
%ADD58R,0.082803X0.082803*%
%ADD60C,0.074929*%
%ADD62R,0.074929X0.074929*%
%ADD64C,0.067055*%
%ADD66R,0.067055X0.067055*%
%ADD68R,0.031622X0.031622*%
%ADD70R,0.059181X0.067055*%
%FSLAX26Y26*%
G04*
G70*
G90*
G75*
G01*
G04 TopMask*
%LPD*%
D68*
X1144000Y1497346D3*
Y1583961D3*
D34*
X1744000Y1919000D3*
X744000D3*
D66*
X1144000Y469000D3*
D64*
X1244000D3*
X1344000D3*
D62*
X1744000Y569000D3*
D60*
X1944000D3*
D62*
X744000D3*
D60*
X544000D3*
D58*
X1144000Y1769000D3*
D56*
X1244000D3*
X1344000D3*
D54*
X944000Y469000D3*
Y543803D3*
D70*
X1119000Y1044000D3*
X1044197D3*
X1444000Y669000D3*
X1518803D3*
X1269000Y1119000D3*
X1194197D3*
D52*
X1494000Y1769000D3*
D50*
Y1269000D3*
D70*
X1369000Y1119000D3*
X1443803D3*
X944197Y744000D3*
X1019000D3*
D54*
X994000Y1169000D3*
Y1243803D3*
D70*
X1319000Y1569000D3*
X1244197D3*
D48*
X1119000Y1419000D3*
Y1369000D3*
Y1319000D3*
Y1269000D3*
X1331598D3*
Y1319000D3*
Y1369000D3*
Y1419000D3*
X1219000Y944000D3*
Y894000D3*
Y844000D3*
Y794000D3*
X1431598D3*
Y844000D3*
Y894000D3*
Y944000D3*
D46*
X1919000Y969000D3*
D44*
Y1165850D3*
Y1067425D3*
D35*
X1789079Y1315457D3*
Y819394D3*
D46*
X569000Y1169000D3*
D44*
Y972150D3*
Y1070575D3*
D35*
X698921Y822543D3*
Y1318606D3*
M02*
