G04 DipTrace 3.0.0.2*
G04 TopSilk.gbr*
%MOIN*%
G04 #@! TF.FileFunction,Legend,Top*
G04 #@! TF.Part,Single*
%ADD10C,0.009843*%
%ADD18C,0.01181*%
%ADD72C,0.00772*%
%ADD73C,0.012351*%
%FSLAX26Y26*%
G04*
G70*
G90*
G75*
G01*
G04 TopSilk*
%LPD*%
D18*
X1144000Y1467817D3*
X1111520Y1499313D2*
D10*
Y1581998D1*
X1176480Y1499313D2*
Y1581998D1*
X419000Y1419000D2*
Y2419000D1*
X2069000Y1419000D2*
Y2419000D1*
X1578950Y1950000D2*
X909050D1*
X1578950Y1888000D2*
X909050D1*
X1578950Y1419000D2*
Y2419000D1*
X909050Y1419000D2*
Y2419000D1*
X1094000Y419000D2*
Y519000D1*
X1394000D1*
Y419000D2*
Y519000D1*
X1094000Y419000D2*
X1394000D1*
X1619000Y719000D2*
X2069000D1*
Y419000D1*
X1619000D1*
Y719000D1*
X869000Y419000D2*
X419000D1*
Y719000D1*
X869000D1*
Y419000D1*
X1047150Y1875299D2*
X1440850D1*
Y1698134D1*
X1047150D1*
Y1875299D1*
Y1839866D2*
X1440850D1*
X1444000Y1368920D2*
Y1669080D1*
X1544000D2*
X1444000D1*
X1544000Y1368920D2*
Y1669080D1*
Y1368920D2*
X1444000D1*
X1174111Y1442427D2*
Y1245573D1*
X1276487Y1442427D2*
Y1245573D1*
X1174111D2*
X1276487D1*
X1205605Y1442427D2*
X1174111D1*
X1244994D2*
X1276487D1*
X1205605D2*
G03X1244994Y1442427I19694J9D01*
G01*
X1274111Y967427D2*
Y770573D1*
X1376487Y967427D2*
Y770573D1*
X1274111D2*
X1376487D1*
X1305605Y967427D2*
X1274111D1*
X1344994D2*
X1376487D1*
X1305605D2*
G03X1344994Y967427I19694J9D01*
G01*
X2064079Y742425D2*
Y1392425D1*
X1689079Y742425D2*
Y1392425D1*
Y742425D2*
X2064079D1*
X1689079Y1392425D2*
X2064079D1*
Y967455D2*
X2439079D1*
Y1167395D1*
X2064079D1*
X423921Y1395575D2*
Y745575D1*
X798921Y1395575D2*
Y745575D1*
Y1395575D2*
X423921D1*
X798921Y745575D2*
X423921D1*
Y1170545D2*
X48921D1*
Y970605D1*
X423921D1*
X1038297Y1498380D2*
D72*
X1088537D1*
Y1515126D1*
X1086105Y1522311D1*
X1081352Y1527120D1*
X1076543Y1529496D1*
X1069413Y1531873D1*
X1057420D1*
X1050235Y1529496D1*
X1045482Y1527120D1*
X1040673Y1522311D1*
X1038297Y1515126D1*
Y1498380D1*
X1047914Y1547312D2*
X1045482Y1552121D1*
X1038352Y1559306D1*
X1088537D1*
X1242249Y592223D2*
Y553977D1*
X1239873Y546792D1*
X1237441Y544415D1*
X1232688Y541983D1*
X1227879D1*
X1223126Y544415D1*
X1220750Y546792D1*
X1218318Y553977D1*
Y558730D1*
X1257689Y582606D2*
X1262497Y585038D1*
X1269682Y592168D1*
Y541983D1*
X1556500Y492223D2*
Y453977D1*
X1554123Y446792D1*
X1551691Y444415D1*
X1546938Y441983D1*
X1542129D1*
X1537376Y444415D1*
X1535000Y446792D1*
X1532568Y453977D1*
Y458730D1*
X1574371Y480230D2*
Y482606D1*
X1576747Y487415D1*
X1579124Y489791D1*
X1583932Y492168D1*
X1593494D1*
X1598247Y489791D1*
X1600624Y487415D1*
X1603056Y482606D1*
Y477853D1*
X1600624Y473045D1*
X1595871Y465915D1*
X1571939Y441983D1*
X1605432D1*
X950503Y1798522D2*
X945750Y1796201D1*
X940941Y1791393D1*
X938565Y1786584D1*
X936133Y1779399D1*
Y1767461D1*
X938565Y1760276D1*
X940941Y1755523D1*
X945750Y1750714D1*
X950503Y1748338D1*
X960064D1*
X964873Y1750714D1*
X969626Y1755523D1*
X972003Y1760276D1*
X974435Y1767461D1*
Y1779399D1*
X972003Y1786584D1*
X969626Y1791393D1*
X964873Y1796201D1*
X960064Y1798522D1*
X950503D1*
X957688Y1757899D2*
X972003Y1743529D1*
X989874Y1788905D2*
X994682Y1791337D1*
X1001867Y1798467D1*
Y1748282D1*
X1009009Y555693D2*
X1030509D1*
X1037694Y558125D1*
X1040126Y560501D1*
X1042503Y565255D1*
Y570063D1*
X1040126Y574816D1*
X1037694Y577248D1*
X1030509Y579625D1*
X1009009D1*
Y529385D1*
X1025756Y555693D2*
X1042503Y529385D1*
X1057942Y570008D2*
X1062750Y572440D1*
X1069935Y579569D1*
Y529385D1*
X1040385Y1122819D2*
X1061885D1*
X1069070Y1125251D1*
X1071502Y1127627D1*
X1073879Y1132381D1*
Y1137189D1*
X1071502Y1141942D1*
X1069070Y1144374D1*
X1061885Y1146751D1*
X1040385D1*
Y1096511D1*
X1057132Y1122819D2*
X1073879Y1096511D1*
X1091750Y1134757D2*
Y1137134D1*
X1094126Y1141942D1*
X1096503Y1144319D1*
X1101312Y1146695D1*
X1110873D1*
X1115626Y1144319D1*
X1118003Y1141942D1*
X1120435Y1137134D1*
Y1132381D1*
X1118003Y1127572D1*
X1113250Y1120442D1*
X1089318Y1096511D1*
X1122811D1*
X1440189Y747819D2*
X1461688D1*
X1468874Y750251D1*
X1471305Y752627D1*
X1473682Y757381D1*
Y762189D1*
X1471305Y766942D1*
X1468874Y769374D1*
X1461688Y771751D1*
X1440189D1*
Y721511D1*
X1456935Y747819D2*
X1473682Y721511D1*
X1493930Y771695D2*
X1520183D1*
X1505868Y752572D1*
X1513053D1*
X1517806Y750196D1*
X1520183Y747819D1*
X1522615Y740634D1*
Y735881D1*
X1520183Y728696D1*
X1515429Y723887D1*
X1508244Y721511D1*
X1501059D1*
X1493930Y723887D1*
X1491553Y726319D1*
X1489121Y731072D1*
X1189197Y1197819D2*
X1210697D1*
X1217882Y1200251D1*
X1220314Y1202627D1*
X1222691Y1207381D1*
Y1212189D1*
X1220314Y1216942D1*
X1217882Y1219374D1*
X1210697Y1221751D1*
X1189197D1*
Y1171511D1*
X1205944Y1197819D2*
X1222691Y1171511D1*
X1262061D2*
Y1221695D1*
X1238130Y1188257D1*
X1274000D1*
X1394709Y1477787D2*
Y1499287D1*
X1392277Y1506472D1*
X1389900Y1508904D1*
X1385147Y1511280D1*
X1380339D1*
X1375585Y1508904D1*
X1373154Y1506472D1*
X1370777Y1499287D1*
Y1477787D1*
X1421017D1*
X1394709Y1494534D2*
X1421017Y1511280D1*
X1370832Y1555405D2*
Y1531528D1*
X1392332Y1529152D1*
X1389956Y1531528D1*
X1387524Y1538713D1*
Y1545843D1*
X1389956Y1553028D1*
X1394709Y1557836D1*
X1401894Y1560213D1*
X1406647D1*
X1413832Y1557836D1*
X1418640Y1553028D1*
X1421017Y1545843D1*
Y1538713D1*
X1418640Y1531528D1*
X1416209Y1529152D1*
X1411455Y1526720D1*
X1366405Y1197819D2*
X1387904D1*
X1395089Y1200251D1*
X1397521Y1202627D1*
X1399898Y1207381D1*
Y1212189D1*
X1397521Y1216942D1*
X1395089Y1219374D1*
X1387904Y1221751D1*
X1366405D1*
Y1171511D1*
X1383151Y1197819D2*
X1399898Y1171511D1*
X1444022Y1214566D2*
X1441645Y1219319D1*
X1434460Y1221695D1*
X1429707D1*
X1422522Y1219319D1*
X1417714Y1212134D1*
X1415337Y1200196D1*
Y1188257D1*
X1417714Y1178696D1*
X1422522Y1173887D1*
X1429707Y1171511D1*
X1432084D1*
X1439214Y1173887D1*
X1444022Y1178696D1*
X1446399Y1185881D1*
Y1188257D1*
X1444022Y1195442D1*
X1439214Y1200196D1*
X1432084Y1202572D1*
X1429707D1*
X1422522Y1200196D1*
X1417714Y1195442D1*
X1415337Y1188257D1*
X940385Y822819D2*
X961885D1*
X969070Y825251D1*
X971502Y827627D1*
X973879Y832381D1*
Y837189D1*
X971502Y841942D1*
X969070Y844374D1*
X961885Y846751D1*
X940385D1*
Y796511D1*
X957132Y822819D2*
X973879Y796511D1*
X998880D2*
X1022811Y846695D1*
X989318D1*
X915181Y1115216D2*
Y1136716D1*
X912749Y1143901D1*
X910373Y1146333D1*
X905620Y1148710D1*
X900811D1*
X896058Y1146333D1*
X893626Y1143901D1*
X891249Y1136716D1*
Y1115216D1*
X941489D1*
X915181Y1131963D2*
X941489Y1148710D1*
X891305Y1176087D2*
X893681Y1168957D1*
X898434Y1166526D1*
X903243Y1166525D1*
X907996Y1168957D1*
X910428Y1173711D1*
X912805Y1183272D1*
X915181Y1190457D1*
X919990Y1195210D1*
X924743Y1197587D1*
X931928D1*
X936681Y1195210D1*
X939113Y1192834D1*
X941489Y1185649D1*
Y1176087D1*
X939113Y1168957D1*
X936681Y1166525D1*
X931928Y1164149D1*
X924743D1*
X919990Y1166525D1*
X915181Y1171334D1*
X912805Y1178464D1*
X910428Y1188025D1*
X907996Y1192834D1*
X903243Y1195210D1*
X898434D1*
X893681Y1192834D1*
X891305Y1185649D1*
Y1176087D1*
X1241574Y1647819D2*
X1263074D1*
X1270259Y1650251D1*
X1272691Y1652627D1*
X1275067Y1657381D1*
Y1662189D1*
X1272691Y1666942D1*
X1270259Y1669374D1*
X1263074Y1671751D1*
X1241574D1*
Y1621511D1*
X1258320Y1647819D2*
X1275067Y1621511D1*
X1321623Y1655004D2*
X1319191Y1647819D1*
X1314438Y1643010D1*
X1307253Y1640634D1*
X1304876D1*
X1297691Y1643010D1*
X1292938Y1647819D1*
X1290506Y1655004D1*
Y1657381D1*
X1292938Y1664566D1*
X1297691Y1669319D1*
X1304876Y1671695D1*
X1307253D1*
X1314438Y1669319D1*
X1319191Y1664566D1*
X1321623Y1655004D1*
Y1643010D1*
X1319191Y1631072D1*
X1314438Y1623887D1*
X1307253Y1621511D1*
X1302500D1*
X1295315Y1623887D1*
X1292938Y1628696D1*
X1194836Y1515650D2*
Y1479780D1*
X1197213Y1472595D1*
X1202021Y1467842D1*
X1209206Y1465410D1*
X1213959D1*
X1221144Y1467842D1*
X1225953Y1472595D1*
X1228330Y1479780D1*
Y1515650D1*
X1243769Y1506033D2*
X1248577Y1508465D1*
X1255762Y1515595D1*
Y1465410D1*
X1284086Y1040650D2*
Y1004780D1*
X1286463Y997595D1*
X1291271Y992842D1*
X1298456Y990410D1*
X1303210D1*
X1310395Y992842D1*
X1315203Y997595D1*
X1317580Y1004780D1*
Y1040650D1*
X1335451Y1028657D2*
Y1031033D1*
X1337827Y1035842D1*
X1340204Y1038218D1*
X1345012Y1040595D1*
X1354574D1*
X1359327Y1038218D1*
X1361704Y1035842D1*
X1364136Y1031033D1*
Y1026280D1*
X1361704Y1021472D1*
X1356951Y1014342D1*
X1333019Y990410D1*
X1366512D1*
X1454395Y1053710D2*
X1452019Y1058463D1*
X1447210Y1063272D1*
X1442457Y1065648D1*
X1432896D1*
X1428087Y1063272D1*
X1423334Y1058463D1*
X1420902Y1053710D1*
X1418525Y1046525D1*
Y1034532D1*
X1420902Y1027402D1*
X1423334Y1022593D1*
X1428087Y1017840D1*
X1432896Y1015408D1*
X1442457D1*
X1447210Y1017840D1*
X1452019Y1022593D1*
X1454395Y1027402D1*
X1469835Y1007118D2*
X1515266D1*
X1564199Y1058463D2*
X1559446Y1063272D1*
X1552261Y1065648D1*
X1542699D1*
X1535514Y1063272D1*
X1530705Y1058463D1*
Y1053710D1*
X1533137Y1048902D1*
X1535514Y1046525D1*
X1540267Y1044148D1*
X1554637Y1039340D1*
X1559446Y1036963D1*
X1561822Y1034532D1*
X1564199Y1029778D1*
Y1022593D1*
X1559446Y1017840D1*
X1552261Y1015408D1*
X1542699D1*
X1535514Y1017840D1*
X1530705Y1022593D1*
X1610699Y1065648D2*
X1579638D1*
Y1015408D1*
X1610699D1*
X1579638Y1041717D2*
X1598761D1*
X1642885Y1065648D2*
Y1015408D1*
X1626139Y1065648D2*
X1659632D1*
X825991Y993798D2*
X845115Y943558D1*
X864238Y993798D1*
X879677Y935267D2*
X925109D1*
X940548Y993798D2*
Y943558D1*
X969233D1*
X1022919D2*
Y993798D1*
X1003795Y943558D1*
X984672Y993798D1*
Y943558D1*
X1055104Y993798D2*
Y943558D1*
X1038358Y993798D2*
X1071851D1*
X919251Y674585D2*
D73*
Y594201D1*
X892457Y674585D2*
X946046D1*
X970749Y624798D2*
X1016644D1*
Y632492D1*
X1012842Y640185D1*
X1009039Y643988D1*
X1001346Y647791D1*
X989850D1*
X982245Y643988D1*
X974551Y636295D1*
X970749Y624798D1*
Y617193D1*
X974551Y605697D1*
X982245Y598092D1*
X989850Y594201D1*
X1001346D1*
X1009039Y598092D1*
X1016644Y605697D1*
X1083441Y636295D2*
X1079638Y643988D1*
X1068142Y647791D1*
X1056646D1*
X1045150Y643988D1*
X1041347Y636295D1*
X1045150Y628689D1*
X1052843Y624798D1*
X1071945Y620996D1*
X1079638Y617193D1*
X1083441Y609500D1*
Y605697D1*
X1079638Y598092D1*
X1068142Y594201D1*
X1056646D1*
X1045150Y598092D1*
X1041347Y605697D1*
X1119639Y674585D2*
Y609500D1*
X1123442Y598092D1*
X1131135Y594201D1*
X1138741D1*
X1108143Y647791D2*
X1134938D1*
X1367457Y624585D2*
Y544201D1*
X1401945D1*
X1413441Y548092D1*
X1417243Y551895D1*
X1421046Y559500D1*
Y570996D1*
X1417243Y578689D1*
X1413441Y582492D1*
X1401945Y586295D1*
X1413441Y590185D1*
X1417243Y593988D1*
X1421046Y601593D1*
Y609287D1*
X1417243Y616892D1*
X1413441Y620783D1*
X1401945Y624585D1*
X1367457D1*
Y586295D2*
X1401945D1*
X1491644Y597791D2*
Y544201D1*
Y586295D2*
X1484039Y593988D1*
X1476346Y597791D1*
X1464938D1*
X1457245Y593988D1*
X1449640Y586295D1*
X1445749Y574798D1*
Y567193D1*
X1449640Y555697D1*
X1457245Y548092D1*
X1464938Y544201D1*
X1476346D1*
X1484039Y548092D1*
X1491644Y555697D1*
X1527843Y624585D2*
Y559500D1*
X1531646Y548092D1*
X1539339Y544201D1*
X1546945D1*
X1516347Y597791D2*
X1543142D1*
X1583143Y624585D2*
Y559500D1*
X1586946Y548092D1*
X1594639Y544201D1*
X1602245D1*
X1571647Y597791D2*
X1598442D1*
M02*
